<?xml version="1.0" encoding="UTF-8" standalone="no"?>
<!-- Uploaded to: SVG Repo, www.svgrepo.com, Generator: SVG Repo Mixer Tools -->

<svg
   fill="#000000"
   version="1.1"
   id="Capa_1"
   width="800px"
   height="800px"
   viewBox="0 0 392.186 392.186"
   xml:space="preserve"
   sodipodi:docname="favicon.svg"
   inkscape:version="1.3 (0e150ed6c4, 2023-07-21)"
   inkscape:export-filename="..\..\inlinegraph\docs\favicon.png"
   inkscape:export-xdpi="31.799999"
   inkscape:export-ydpi="31.799999"
   xmlns:inkscape="http://www.inkscape.org/namespaces/inkscape"
   xmlns:sodipodi="http://sodipodi.sourceforge.net/DTD/sodipodi-0.dtd"
   xmlns="http://www.w3.org/2000/svg"
   xmlns:svg="http://www.w3.org/2000/svg"><defs
   id="defs6" /><sodipodi:namedview
   id="namedview6"
   pagecolor="#ffffff"
   bordercolor="#666666"
   borderopacity="1.0"
   inkscape:showpageshadow="2"
   inkscape:pageopacity="0.0"
   inkscape:pagecheckerboard="0"
   inkscape:deskcolor="#d1d1d1"
   inkscape:zoom="0.803125"
   inkscape:cx="712.84047"
   inkscape:cy="772.607"
   inkscape:window-width="2496"
   inkscape:window-height="1630"
   inkscape:window-x="-11"
   inkscape:window-y="-11"
   inkscape:window-maximized="1"
   inkscape:current-layer="g4" />&#10;<g
   id="g6">&#10;	<g
   id="g5">&#10;		<g
   id="g4">&#10;			&#10;			&#10;			&#10;			&#10;		<path
   id="rect6"
   style="fill:#0055d4;stroke-width:9.80465;stroke-linecap:round;stroke-linejoin:round"
   d="M 0,0 V 392.186 H 392.186 V 0 Z M 159.69037,111.29236 H 185.86132 V 135.36449 H 159.69037 Z M 281.78123,154.62239 C 289.76421,154.62239 296.42985,155.44578 301.77928,157.09175 C 307.211,158.65542 312.93152,161.08244 318.93933,164.37439 L 320.42055,158.44947 H 342.14686 V 280.66289 C 342.14686,304.03574 336.8385,321.1954 326.22197,332.14114 C 315.60543,343.08687 299.26914,348.55914 277.21307,348.55914 C 269.88849,348.55914 262.72919,348.02428 255.73381,346.9544 C 248.82072,345.96681 241.98925,344.52708 235.24075,342.63422 V 318.93167 H 236.47591 C 240.26165,320.41304 246.26878,322.22372 254.49864,324.36349 C 262.72852,326.58555 270.9585,327.69648 279.18836,327.69648 C 287.08904,327.69648 293.632,326.75042 298.81682,324.85755 C 304.00164,322.96467 308.03418,320.33062 310.91465,316.95638 C 313.79509,313.74673 315.85308,309.87905 317.08755,305.35262 C 318.32204,300.82618 318.93933,295.76512 318.93933,290.16881 V 277.57692 C 311.94394,283.17324 305.23612,287.37065 298.81682,290.16881 C 292.47981,292.88467 284.37349,294.24196 274.49764,294.24196 C 258.0379,294.24196 244.952,288.31726 235.24075,276.46624 C 225.6118,264.53291 220.79804,247.74325 220.79804,226.09868 C 220.79804,214.24765 222.44384,204.04311 225.73579,195.48403 C 229.11004,186.84268 233.67745,179.39391 239.43837,173.13921 C 244.78779,167.29599 251.28952,162.7698 258.94329,159.56014 C 266.59708,156.2682 274.20976,154.62239 281.78123,154.62239 Z M 161.1716,158.44947 H 184.38009 V 296.34075 H 161.1716 Z M 285.85438,175.48505 C 273.09807,175.48505 263.0584,179.76489 255.73381,188.32397 C 248.40922,196.88303 244.74666,209.31041 244.74666,225.60558 C 244.74666,241.07774 247.46219,252.80443 252.8939,260.78741 C 258.32562,268.7704 267.33776,272.76269 279.92946,272.76269 C 286.67796,272.76269 293.42604,271.48688 300.17454,268.93562 C 307.00533,266.30205 313.26072,262.80437 318.93933,258.44254 V 183.26269 C 312.76693,180.46453 307.00518,178.48901 301.65577,177.33682 C 296.38865,176.10233 291.1215,175.48505 285.85438,175.48505 Z"
   sodipodi:nodetypes="ccccccccccsccccssscccccsscssccscscccscccccsssssccccs" /></g>&#10;	</g>&#10;</g>&#10;</svg>
